<?xml version="1.0" encoding="UTF-8"?>
<svg version="1.1" xmlns="http://www.w3.org/2000/svg" width="1024" height="1024">
<path d="M0 0 C337.92 0 675.84 0 1024 0 C1024 337.92 1024 675.84 1024 1024 C686.08 1024 348.16 1024 0 1024 C0 686.08 0 348.16 0 0 Z " fill="#FEFEFE" transform="translate(0,0)"/>
<path d="M0 0 C0.93070313 0.18191895 1.86140625 0.36383789 2.8203125 0.55126953 C41.58734555 8.36472594 77.98762593 25.5524736 109 50 C110.2065625 50.95060303 110.2065625 50.95060303 111.4375 51.92041016 C118.29787617 57.42209126 124.66432074 63.27772129 130.875 69.5 C131.35078491 69.9759964 131.82656982 70.4519928 132.31677246 70.94241333 C140.71896555 79.38167389 148.19252379 88.22338448 155 98 C155.43135254 98.60263672 155.86270508 99.20527344 156.30712891 99.82617188 C169.56599165 118.37131425 179.21174406 138.6334848 187 160 C187.27424805 160.74942871 187.54849609 161.49885742 187.83105469 162.27099609 C197.93767255 190.51087772 200.47107838 221.02942799 200.40405273 250.79248047 C200.40977644 253.14135051 200.41674828 255.49021777 200.42485046 257.83908081 C200.44255961 264.12744376 200.44165817 270.41566554 200.43590808 276.70404577 C200.43239188 282.64934852 200.4404137 288.59463475 200.44726873 294.53993227 C200.46089832 307.01404576 200.45561955 319.48809598 200.44408352 331.96220793 C200.43411795 343.34653004 200.4471659 354.73069039 200.47101771 366.1149876 C200.49544411 377.86349438 200.50501055 389.61192589 200.49836498 401.36045754 C200.49500346 407.93332761 200.49735933 414.50606348 200.51461601 421.07891464 C200.53010972 427.24671364 200.52610241 433.41420243 200.50731087 439.58198929 C200.50363427 441.83777559 200.50670617 444.09358507 200.51719666 446.34934998 C200.59130647 463.60711045 198.98128695 478.27239077 186.9375 491.6875 C177.49050481 500.6049551 166.73820207 503.58378579 154.1953125 503.3515625 C145.93991426 502.90481744 138.4984268 498.91344465 132 494 C131.195625 493.46375 130.39125 492.9275 129.5625 492.375 C122.81467744 486.12092056 118.98411401 478.30418529 115.5546875 469.8828125 C113.26027138 465.6283424 110.55733479 463.5191116 106 462 C103.91849427 461.72947517 103.91849427 461.72947517 101.6875 461.6875 C100.94886719 461.65011719 100.21023438 461.61273437 99.44921875 461.57421875 C95.84839828 462.2001987 93.82617997 463.70536646 91 466 C88.86487801 469.10170282 88.86487801 469.10170282 87.125 472.625 C77.82573334 489.84420553 64.49127287 501.72942039 45.64453125 507.390625 C26.48893468 512.56787149 8.94701831 509.87160699 -8.21240234 500.08056641 C-18.99158919 493.56476731 -26.25648703 484.93969861 -32.16064453 474.01123047 C-35.68470611 467.46926148 -35.68470611 467.46926148 -41.1875 462.6875 C-46.56590672 461.37277836 -51.01250474 460.97800631 -56.0234375 463.5546875 C-59.63343028 466.52037711 -61.15411665 469.37627714 -63.1875 473.5 C-71.99643154 490.14204037 -86.09341333 502.05624807 -104.1875 507.75 C-122.41370975 512.73615012 -140.20345764 509.8589122 -156.6796875 501.0390625 C-170.03518914 492.83721326 -178.00028588 482.10626877 -185.359375 468.53125 C-187.72915513 464.8750178 -189.89612667 463.36795778 -194 462 C-198.57371016 461.46857844 -202.08255211 461.5845519 -206.3125 463.5 C-210.41616163 467.31735965 -212.02783468 471.7522547 -214.2265625 476.8359375 C-219.92056806 489.21006132 -228.22616905 497.10366593 -241 502 C-251.22929593 504.6858119 -262.64997766 503.94592564 -272 499 C-282.74254659 492.48237442 -291.18625882 483.37265607 -294.55334282 470.96014118 C-295.19375061 466.71595223 -295.13733281 462.52959599 -295.12698364 458.24320984 C-295.12854363 457.25383999 -295.13010362 456.26447014 -295.13171089 455.24511939 C-295.13570304 451.92601176 -295.132538 448.60694978 -295.12939453 445.2878418 C-295.13074946 442.90915398 -295.1325299 440.53046638 -295.13470459 438.15177917 C-295.13879616 432.3564845 -295.13818968 426.56120434 -295.13529195 420.76590922 C-295.13303164 416.04934522 -295.13272813 411.33278485 -295.13381577 406.61622047 C-295.133969 405.94432935 -295.13412223 405.27243822 -295.13428011 404.58018676 C-295.13459985 403.21501813 -295.13492406 401.8498495 -295.1352527 400.48468087 C-295.13810521 387.67768646 -295.1348253 374.8706992 -295.12945233 362.06370596 C-295.12499571 351.10260701 -295.12575122 340.14151867 -295.13037109 329.18041992 C-295.13574028 316.43564661 -295.13781876 303.69087959 -295.13475883 290.9461053 C-295.13444031 289.58265452 -295.13412594 288.21920373 -295.13381577 286.85575294 C-295.13366149 286.18503637 -295.13350721 285.5143198 -295.13334826 284.82327848 C-295.13248929 280.12440403 -295.13393282 275.4255336 -295.13629532 270.72665977 C-295.13920183 264.37783527 -295.1371476 258.02903059 -295.13140106 251.68020821 C-295.13008768 249.36000476 -295.13044317 247.03979962 -295.13266373 244.71959686 C-295.16173954 211.22867886 -295.16173954 211.22867886 -291.9375 196.3125 C-291.71320313 195.27416016 -291.71320313 195.27416016 -291.484375 194.21484375 C-291.32453125 193.48394531 -291.1646875 192.75304687 -291 192 C-290.82984375 191.20464844 -290.6596875 190.40929687 -290.484375 189.58984375 C-283.23469184 156.08595086 -270.21346289 125.72740641 -250 98 C-249.5771875 97.41879395 -249.154375 96.83758789 -248.71875 96.23876953 C-242.67903692 88.0073012 -236.07806965 80.35417216 -229 73 C-228.39881348 72.37158203 -227.79762695 71.74316406 -227.17822266 71.09570312 C-218.33833171 61.90203855 -209.27968544 53.54707355 -199 46 C-197.8710548 45.15239563 -196.74214857 44.30473934 -195.61328125 43.45703125 C-187.44325865 37.401699 -178.88353323 32.14466447 -170.03027344 27.15087891 C-168.19940793 26.11303619 -166.38382941 25.04833691 -164.5703125 23.98046875 C-115.88073083 -3.62528714 -54.51027891 -10.88238344 0 0 Z " fill="#75B06A" transform="translate(560,253)"/>
<path d="M0 0 C0.96308075 -0.00852997 1.9261615 -0.01705994 2.91842651 -0.02584839 C3.97354935 -0.02494202 5.02867218 -0.02403564 6.11576843 -0.02310181 C7.22822937 -0.02981903 8.34069031 -0.03653625 9.48686218 -0.04345703 C13.17530244 -0.06250061 16.86356133 -0.06636459 20.55204773 -0.06851196 C23.11171545 -0.07493593 25.67138243 -0.08166399 28.23104858 -0.08868408 C33.60198465 -0.10067312 38.97285288 -0.1044488 44.34379578 -0.10317993 C50.545147 -0.10197931 56.74614972 -0.12306412 62.94741279 -0.15466726 C68.91841424 -0.18400923 74.88930965 -0.19115497 80.8603878 -0.18996048 C83.39812327 -0.1923219 85.93586126 -0.20117567 88.4735508 -0.21662521 C92.02385495 -0.23621356 95.57326244 -0.23047412 99.12358093 -0.21841431 C100.17263107 -0.22965332 101.22168121 -0.24089233 102.30252075 -0.25247192 C108.28491765 -0.20081561 111.78195795 0.23721906 116.31376648 4.26742554 C118.83909331 8.05541578 118.5679383 11.05222901 118.50907898 15.43539429 C118.50706482 16.14006836 118.50505066 16.84474243 118.50297546 17.57077026 C118.49252457 20.19888839 118.46460191 22.82691362 118.43876648 25.45492554 C118.39751648 31.33305054 118.35626648 37.21117554 118.31376648 43.26742554 C100.82376648 43.26742554 83.33376648 43.26742554 65.31376648 43.26742554 C65.31376648 61.41742554 65.31376648 79.56742554 65.31376648 98.26742554 C82.80376648 98.26742554 100.29376648 98.26742554 118.31376648 98.26742554 C118.31376648 120.26742554 118.31376648 120.26742554 113.31376648 126.26742554 C110.91031925 127.46914915 109.39469001 127.40363698 106.70982361 127.42132568 C105.73970337 127.42992615 104.76958313 127.43852661 103.77006531 127.4473877 C102.70199646 127.45164764 101.63392761 127.45590759 100.53349304 127.46029663 C98.85039032 127.47256287 98.85039032 127.47256287 97.13328552 127.4850769 C93.406993 127.5099608 89.68073864 127.52645453 85.95439148 127.54086304 C84.04871021 127.54884855 84.04871021 127.54884855 82.10453033 127.55699539 C76.76529606 127.57823136 71.42607518 127.59736093 66.08681107 127.60861778 C58.43851656 127.62484933 50.79073071 127.65800536 43.14262795 127.71501863 C37.1144854 127.75842084 31.08657403 127.77436616 25.05826569 127.78075027 C22.49538808 127.7874754 19.93251823 127.80272987 17.36974335 127.82664108 C13.78330692 127.8581942 10.19815634 127.85834333 6.61161804 127.85092163 C5.02166016 127.87552963 5.02166016 127.87552963 3.39958191 127.90063477 C-4.63670155 127.83251809 -4.63670155 127.83251809 -8.32984924 124.85595703 C-11.352334 121.5357019 -11.81085176 120.12428927 -11.83340454 115.77064514 C-11.84055984 114.8243222 -11.84771515 113.87799927 -11.85508728 112.90299988 C-11.85777618 111.8614122 -11.86046509 110.81982452 -11.86323547 109.74667358 C-11.86980667 108.65225952 -11.87637787 107.55784546 -11.88314819 106.43026733 C-11.90291276 102.79655902 -11.91455029 99.16289207 -11.92451477 95.52914429 C-11.9285903 94.29053965 -11.93266582 93.05193501 -11.93686485 91.77579689 C-11.95558422 85.89769539 -11.97014753 80.01960709 -11.97847682 74.14148301 C-11.98824854 67.35749508 -12.01456581 60.5738335 -12.05497772 53.78996056 C-12.0887822 47.91346722 -12.1006223 42.03708334 -12.10468102 36.16050148 C-12.10956092 33.66100666 -12.12121454 31.16151567 -12.13971901 28.66208458 C-12.16399099 25.16657721 -12.16316693 21.67192641 -12.15620422 18.17636108 C-12.16901428 17.1408461 -12.18182434 16.10533112 -12.19502258 15.03843689 C-12.16312184 10.65205055 -12.14281777 8.02518163 -9.84436035 4.21061707 C-6.46305267 1.1660655 -4.49011511 0.0179697 0 0 Z " fill="#FDFEFD" transform="translate(359.6862335205078,388.7325744628906)"/>
<path d="M0 0 C1.4299379 -0.01073296 1.4299379 -0.01073296 2.88876343 -0.02168274 C3.9381308 -0.02437164 4.98749817 -0.02706055 6.06866455 -0.02983093 C7.17122589 -0.03640213 8.27378723 -0.04297333 9.40975952 -0.04974365 C13.07112693 -0.06951026 16.73245326 -0.0811468 20.39385986 -0.09111023 C21.64224892 -0.09518576 22.89063797 -0.09926128 24.17685699 -0.10346031 C30.10248089 -0.12218123 36.02809168 -0.13674354 41.95373797 -0.14507228 C48.78978539 -0.15483954 55.62550856 -0.18114438 62.46144176 -0.22157317 C68.38490442 -0.25540069 74.30828786 -0.26721974 80.23184967 -0.27127647 C82.75005542 -0.27615312 85.26825745 -0.28779755 87.78639984 -0.30631447 C91.31043906 -0.33061706 94.83362998 -0.32975659 98.35772705 -0.32279968 C99.3989975 -0.33560974 100.44026794 -0.3484198 101.51309204 -0.36161804 C108.82058694 -0.30901238 112.25764042 0.93282658 117.47198486 6.14717102 C117.64717745 8.94309407 117.70355849 11.64127139 117.66729736 14.43623352 C117.6652832 15.16157288 117.66326904 15.88691223 117.66119385 16.63423157 C117.65072006 19.34694227 117.62279747 22.05956291 117.59698486 24.77217102 C117.55573486 30.83592102 117.51448486 36.89967102 117.47198486 43.14717102 C99.65198486 43.14717102 81.83198486 43.14717102 63.47198486 43.14717102 C63.47198486 61.29717102 63.47198486 79.44717102 63.47198486 98.14717102 C81.29198486 98.14717102 99.11198486 98.14717102 117.47198486 98.14717102 C117.47198486 105.73717102 117.47198486 113.32717102 117.47198486 121.14717102 C111.35429539 127.26486049 111.35429539 127.26486049 105.90600586 127.30107117 C104.46344673 127.31397186 104.46344673 127.31397186 102.991745 127.32713318 C101.93302689 127.33139313 100.87430878 127.33565308 99.7835083 127.34004211 C98.67119339 127.3482196 97.55887848 127.35639709 96.41285706 127.36482239 C92.71903019 127.38970584 89.02524183 127.40619993 85.33135986 127.42060852 C83.44222744 127.42859404 83.44222744 127.42859404 81.51493073 127.43674088 C76.22201964 127.45797677 70.92912207 127.47710632 65.63618088 127.48836327 C58.05444744 127.50459454 50.47322715 127.53774994 42.89168715 127.59476411 C36.91587014 127.63816788 30.94028633 127.6541118 24.96430206 127.66049576 C22.42375283 127.66722063 19.88321141 127.68247446 17.34276581 127.70638657 C13.78745899 127.73794185 10.23344916 127.73808851 6.67803955 127.73066711 C5.62741837 127.74707245 4.57679718 127.76347778 3.49433899 127.78038025 C-1.12820567 127.74086007 -4.47404009 127.71146821 -8.16589355 124.73570251 C-11.19136483 121.4202391 -11.65247726 120.00847441 -11.68191528 115.65711975 C-11.69051575 114.71224197 -11.69911621 113.7673642 -11.70797729 112.79385376 C-11.71223724 111.75383713 -11.71649719 110.7138205 -11.72088623 109.64228821 C-11.72906372 108.54948044 -11.73724121 107.45667267 -11.7456665 106.33074951 C-11.77054905 102.70185398 -11.78704386 99.07299764 -11.80145264 95.44404602 C-11.80677631 94.20668953 -11.81209999 92.96933304 -11.81758499 91.6944809 C-11.83882072 86.49421915 -11.85795026 81.2939633 -11.86920738 76.09366989 C-11.88543811 68.64505848 -11.9185922 61.19696944 -11.97560823 53.74855494 C-12.01901506 47.87740595 -12.03495628 42.00641868 -12.04133987 36.13512421 C-12.04806422 33.63923169 -12.06331672 31.14334713 -12.08723068 28.64756012 C-12.11879042 25.15451233 -12.118932 21.66278444 -12.11151123 18.16963196 C-12.12791656 17.13771225 -12.1443219 16.10579254 -12.16122437 15.04260254 C-12.12133614 10.45770247 -12.0663078 7.17974905 -9.11654663 3.52076721 C-5.7880984 0.4686923 -4.37812255 0.02251378 0 0 Z " fill="#FEFEFE" transform="translate(558.5280151367188,388.8528289794922)"/>
<path d="M0 0 C17.82 0 35.64 0 54 0 C54 18.15 54 36.3 54 55 C36.18 55 18.36 55 0 55 C0 36.85 0 18.7 0 0 Z " fill="#3E8DE7" transform="translate(622,432)"/>
<path d="M0 0 C17.49 0 34.98 0 53 0 C53 18.15 53 36.3 53 55 C35.51 55 18.02 55 0 55 C0 36.85 0 18.7 0 0 Z " fill="#3E8DE6" transform="translate(425,432)"/>
</svg>
